<svg xmlns="http://www.w3.org/2000/svg" xml:space="preserve" version="1.1" viewBox="439.3 444.55 201.4 190.9">
 <desc>Created with Fabric.js 5.2.4</desc>

 <g>
  <title>Layer 1</title>
  <g id="dcb76340-4b84-4fd6-97d4-c8bdc94d08a5" transform="matrix(1 0 0 1 540 540)"/>
  <g id="svg_2" transform="matrix(1 0 0 1 540 540)">
   <path id="svg_3" fill-rule=" nonzero" fill=" rgb(34,111,170)" stroke-miterlimit="4" stroke-linejoin=" miter" stroke-dashoffset="0" stroke-dasharray=" none" stroke-width="0" stroke=" none" stroke-linecap=" butt" d="m96.86,57.49l-18.37,-11.67c7.46,-13.6 11.7,-29.22 11.7,-45.82c0,-52.72 -42.73,-95.45 -95.44,-95.45c-52.71,0 -95.45,42.73 -95.45,95.45c0,52.72 42.73,95.45 95.45,95.45c24.32,0 46.51,-9.1 63.37,-24.08l21.32,13.55c3.86,2.45 8.98,1.31 11.43,-2.55l8.54,-13.44c2.45,-3.86 1.31,-8.98 -2.55,-11.43l0,-0.01zm-175.76,-57.49c0,-40.67 32.97,-73.65 73.65,-73.65c40.68,0 73.65,32.97 73.65,73.65c0,40.68 -32.97,73.65 -73.65,73.65c-40.68,0 -73.65,-32.98 -73.65,-73.65z" vector-effect="non-scaling-stroke"/>
  </g>
  <g id="svg_4" transform="matrix(1 0 0 1 614.69 526.88)">
   <path id="svg_5" fill-rule=" nonzero" fill=" rgb(28,64,129)" stroke-miterlimit="4" stroke-linejoin=" miter" stroke-dashoffset="0" stroke-dasharray=" none" stroke-width="0" stroke=" none" stroke-linecap=" butt" d="m9.52,7.13c0,16.61 -4.24,32.22 -11.7,45.82l6.85,4.35c6.92,-13.21 10.84,-28.24 10.84,-44.19c0,-27.88 -11.96,-52.96 -31.02,-70.41c15.54,16.98 25.03,39.6 25.03,64.43z" vector-effect="non-scaling-stroke"/>
  </g>
  <g id="svg_6" transform="matrix(1 0 0 1 519.43 524.67)">
   <path id="svg_7" fill-rule=" nonzero" fill=" rgb(28,64,129)" stroke-miterlimit="4" stroke-linejoin=" miter" stroke-dashoffset="0" stroke-dasharray=" none" stroke-width="0" stroke=" none" stroke-linecap=" butt" d="m-39.66,64.31c-11.61,-13.02 -18.67,-30.17 -18.67,-48.99c0,-40.67 32.97,-73.65 73.65,-73.65c18.81,0 35.97,7.06 48.99,18.67c-13.49,-15.12 -33.11,-24.66 -54.97,-24.66c-40.68,0.02 -73.65,32.99 -73.65,73.66c0,21.86 9.53,41.48 24.66,54.97l-0.01,0z" vector-effect="non-scaling-stroke"/>
  </g>
  <g id="svg_8" transform="matrix(1 0 0 1 552.52 615.65)">
   <path id="svg_9" fill-rule=" nonzero" fill=" rgb(28,64,129)" stroke-miterlimit="4" stroke-linejoin=" miter" stroke-dashoffset="0" stroke-dasharray=" none" stroke-width="0" stroke=" none" stroke-linecap=" butt" d="m84.34,-18.16001l-2.58,-1.64c0.77,2.29 0.54,4.89 -0.85,7.09l-8.54,13.44c-2.45,3.86 -7.57,5 -11.43,2.55l-21.32,-13.55c-16.86,14.98 -39.05,24.08 -63.37,24.08c-24.32,0 -47.45,-9.49 -64.43,-25.03c17.45,19.06 42.53,31.02 70.41,31.02c24.32,0 46.51,-9.1 63.37,-24.08l21.32,13.55c3.86,2.45 8.98,1.31 11.43,-2.55l8.54,-13.44c2.45,-3.86 1.31,-8.98 -2.55,-11.43l0,-0.01z" vector-effect="non-scaling-stroke"/>
  </g>
  <g id="svg_10" transform="matrix(1 0 0 1 534.75 540)">
   <path id="svg_11" fill-rule=" nonzero" fill=" rgb(174,175,176)" stroke-miterlimit="4" stroke-linejoin=" miter" stroke-dashoffset="0" stroke-dasharray=" none" stroke-width="0" stroke=" none" stroke-linecap=" butt" d="m1.06,-59.27l2.93,54.8c0.15,2.83 3.07,4.64 5.67,3.52l20.64,-11.32l-28.65,25.12c-4.74,3.36 -11.25,-0.32 -10.81,-6.12l5.71,-65.93c-31.14,1.79 -55.85,27.6 -55.85,59.19c0,31.59 26.55,59.3 59.3,59.3c32.75,0 59.3,-26.55 59.3,-59.3c0,-32.75 -25.98,-58.7 -58.23,-59.27l-0.01,0.01z" vector-effect="non-scaling-stroke"/>
  </g>
  <g id="svg_12" transform="matrix(1 0 0 1 540.6 546.26)">
   <path id="svg_13" fill-rule=" nonzero" fill=" rgb(88,88,88)" stroke-miterlimit="4" stroke-linejoin=" miter" stroke-dashoffset="0" stroke-dasharray=" none" stroke-width="0" stroke=" none" stroke-linecap=" butt" d="m36.49,-50.39c7.42,9.9 11.82,22.19 11.82,35.51c0,32.75 -26.55,59.3 -59.3,59.3c-16.63,0 -31.66,-6.86 -42.43,-17.89c10.81,14.49 28.09,23.87 47.55,23.87c32.75,0 59.3,-26.55 59.3,-59.3c0,-16.16 -6.47,-30.8 -16.95,-41.49l0.01,0z" vector-effect="non-scaling-stroke"/>
  </g>
  <g id="svg_14" transform="matrix(1 0 0 1 554.14 532.26)">
   <path id="svg_15" opacity="0.51" fill-rule=" nonzero" fill=" rgb(175,176,176)" stroke-miterlimit="4" stroke-linejoin=" miter" stroke-dashoffset="0" stroke-dasharray=" none" stroke-width="0" stroke=" none" stroke-linecap=" butt" d="m-15.4,3.2c0.1,1.94 1.88,4.53 5.67,3.59l25.13,-13.78" vector-effect="non-scaling-stroke"/>
  </g>
 </g>
</svg>