<svg width="30" height="31" viewBox="0 0 30 31" fill="none" xmlns="http://www.w3.org/2000/svg">
<path fill-rule="evenodd" clip-rule="evenodd" d="M24.3772 7.00239C24.762 7.34876 24.7932 7.94153 24.4469 8.32638L14.7749 19.073C13.5567 20.4266 11.4944 20.5953 10.0724 19.4577L5.66438 15.9313C5.26007 15.6078 5.19452 15.0179 5.51797 14.6136C5.84142 14.2093 6.43138 14.1437 6.83569 14.4672L11.2437 17.9936C11.8901 18.5107 12.8275 18.434 13.3812 17.8187L23.0532 7.07207C23.3996 6.68722 23.9923 6.65602 24.3772 7.00239Z" fill="black"/>
<path fill-rule="evenodd" clip-rule="evenodd" d="M7.8125 22.6992C7.8125 22.1815 8.23223 21.7617 8.75 21.7617H16.25C16.7678 21.7617 17.1875 22.1815 17.1875 22.6992C17.1875 23.217 16.7678 23.6367 16.25 23.6367H8.75C8.23223 23.6367 7.8125 23.217 7.8125 22.6992Z" fill="black"/>
</svg>
